<mxfile host="app.diagrams.net" agent="Mozilla/5.0 (X11; Linux x86_64) AppleWebKit/537.36 (KHTML, like Gecko) Chrome/131.0.0.0 Safari/537.36" version="25.0.3">
  <diagram name="Page-1" id="xSPA35rQE9uIuLhvjZ89">
    <mxGraphModel dx="20120" dy="11640" grid="1" gridSize="100" guides="1" tooltips="1" connect="1" arrows="1" fold="1" page="1" pageScale="1" pageWidth="23622" pageHeight="2362" background="#FFFFFF" math="0" shadow="0">
      <root>
        <mxCell id="0" />
        <mxCell id="1" parent="0" />
        <mxCell id="GZHj1g9VWXxsmudOEbnP-6" value="&lt;font style=&quot;font-size: 412px;&quot;&gt;2024&lt;/font&gt;" style="rounded=0;whiteSpace=wrap;html=1;fontSize=212;fontFamily=Pilowlava;fontSource=https%3A%2F%2Fja.ishalt.so%2Ffont%2FPilowlava-Regular.otf;fillColor=#0f000a;fontColor=#FF5053;" vertex="1" parent="1">
          <mxGeometry x="100" y="100" width="1700" height="600" as="geometry" />
        </mxCell>
        <mxCell id="GZHj1g9VWXxsmudOEbnP-7" value="" style="html=1;shadow=0;dashed=0;align=center;verticalAlign=middle;shape=mxgraph.arrows2.stripedArrow;dy=0.67;dx=538.37;notch=25;fillColor=#0F000A;" vertex="1" parent="1">
          <mxGeometry x="400" y="2000" width="22700" height="200" as="geometry" />
        </mxCell>
        <mxCell id="GZHj1g9VWXxsmudOEbnP-8" value="&lt;font style=&quot;font-size: 412px;&quot;&gt;2025&lt;/font&gt;" style="rounded=0;whiteSpace=wrap;html=1;fontSize=212;fontFamily=Pilowlava;fontSource=https%3A%2F%2Fja.ishalt.so%2Ffont%2FPilowlava-Regular.otf;fillColor=#0f000a;fontColor=#FF5053;" vertex="1" parent="1">
          <mxGeometry x="11700" y="200" width="1700" height="600" as="geometry" />
        </mxCell>
      </root>
    </mxGraphModel>
  </diagram>
</mxfile>
